<?xml version="1.0" encoding="utf-8"?>
<svg viewBox="0 0 400 400" xmlns="http://www.w3.org/2000/svg">
  <rect opacity="1" fill="#444444" data-fill-palette-color="background" id="background" style="" width="400" height="400"/>
  <g id="tight-bounds" transform="matrix(1, 0, 0, 1, 40.00043869018555, 20.000000000000004)">
    <svg viewBox="0 0 320 360" height="360" width="320">
      <g>
        <svg/>
      </g>
      <g>
        <svg viewBox="0 0 320 360" height="360" width="320">
          <g>
            <path xmlns="http://www.w3.org/2000/svg" d="M307.925 179.999l6.575-11.387c11.322-19.607 4.604-44.679-15.003-56.001l-11.387-6.575v-13.151c0-22.639-18.354-40.994-40.994-40.994h-13.151l-6.575-11.387c-11.322-19.607-36.393-26.325-56.001-15.003l-11.39 6.572-11.387-6.576c-19.607-11.318-44.679-4.6-56.001 15.007l-6.575 11.387h-13.151c-22.639 0-40.994 18.354-40.994 40.994v13.151l-11.387 6.575c-19.607 11.322-26.325 36.393-15.003 56.001l6.572 11.387-6.576 11.387c-11.318 19.607-4.6 44.679 15.007 56l11.387 6.576v13.15c0 22.639 18.354 40.994 40.994 40.994h13.151l6.575 11.387c11.322 19.607 36.393 26.325 56.001 15.003l11.387-6.571 11.387 6.575c19.607 11.322 44.679 4.604 56-15.003l6.576-11.387h13.15c22.639 0 40.994-18.354 40.994-40.994v-13.151l11.387-6.575c19.607-11.322 26.325-36.393 15.003-56.001zM297.702 115.716c8.655 4.996 14.842 13.062 17.428 22.713 2.586 9.65 1.261 19.734-3.735 28.384l-5.538 9.596-17.747-30.74v-35.494zM251.155 271.155l-57.791 33.365h-66.731l-57.791-33.365-33.365-57.791v-66.731l33.365-57.791 57.791-33.365h66.731l57.791 33.365 33.365 57.791v66.731zM284.517 220.539v31.351l-27.151 15.676zM247.566 277.366l-15.676 27.151h-31.351zM187.15 308.106l-27.151 15.676-27.151-15.676zM119.459 304.517h-31.352l-15.676-27.151zM62.632 267.566l-27.151-15.676v-31.351zM31.891 207.15l-15.675-27.151 15.675-27.151zM35.481 139.459v-31.352l27.151-15.676zM72.431 82.632l15.676-27.151h31.352zM132.848 51.891l27.151-15.675 27.151 15.675zM200.539 55.481h31.351l15.676 27.151zM257.366 92.431l27.151 15.676v31.352zM288.106 152.848l15.676 27.151-15.676 27.151zM247.112 55.481c9.992 0 19.384 3.889 26.452 10.956 7.063 7.063 10.956 16.46 10.957 26.452v11.079l-30.741-17.747-17.747-30.74zM173.18 28.606c8.655-4.996 18.735-6.322 28.385-3.735 9.65 2.586 17.716 8.777 22.712 17.428l5.538 9.596h-35.494l-30.741-17.747zM95.716 42.295c4.996-8.655 13.062-14.842 22.713-17.428 9.65-2.586 19.734-1.261 28.384 3.736l9.596 5.537-30.74 17.747h-35.494zM35.481 92.885c0-9.992 3.889-19.384 10.956-26.452 7.063-7.063 16.46-10.956 26.452-10.956h11.079l-17.747 30.74-30.74 17.747zM8.606 166.817c-4.996-8.655-6.322-18.735-3.735-28.385 2.586-9.65 8.777-17.716 17.428-22.712l9.596-5.538v35.495l-17.747 30.74zM22.295 244.281c-8.655-4.996-14.842-13.062-17.428-22.712-2.586-9.65-1.261-19.734 3.736-28.385l5.537-9.596 17.747 30.74v35.495zM72.885 304.517c-9.992 0-19.384-3.889-26.452-10.957-7.063-7.063-10.956-16.46-10.956-26.451v-11.08l30.74 17.747 17.747 30.741zM146.817 331.391c-8.655 4.996-18.735 6.322-28.385 3.735-9.65-2.586-17.716-8.777-22.712-17.428l-5.538-9.596h35.495l30.74 17.747zM224.281 317.702c-4.996 8.655-13.062 14.842-22.712 17.428-9.65 2.586-19.734 1.261-28.385-3.735l-9.596-5.538 30.74-17.747h35.495zM284.517 267.112c0 9.992-3.889 19.384-10.957 26.452-7.063 7.063-16.46 10.956-26.451 10.957h-11.08l17.747-30.741 30.741-17.747zM315.13 221.565c-2.586 9.65-8.777 17.716-17.428 22.712l-9.596 5.538v-35.494l17.747-30.741 5.538 9.596c4.996 8.658 6.326 18.739 3.739 28.389z" fill="#ffffff" fill-rule="nonzero" stroke="none" stroke-width="1" stroke-linecap="butt" stroke-linejoin="miter" stroke-miterlimit="10" stroke-dasharray="" stroke-dashoffset="0" font-family="none" font-weight="none" font-size="none" text-anchor="none" style="mix-blend-mode: normal" data-fill-palette-color="tertiary"/>
          </g>
          <g transform="matrix(1,0,0,1,70.08999999999999,90.08999999999999)">
            <svg viewBox="0 0 179.82000000000002 179.82000000000002" height="179.82000000000002" width="179.82000000000002">
              <g>
                <svg viewBox="0 0 179.82000000000002 179.82000000000002" height="179.82000000000002" width="179.82000000000002">
                  <g>
                    <svg viewBox="0 0 179.82000000000002 179.82000000000002" height="179.82000000000002" width="179.82000000000002">
                      <g id="textblocktransform">
                        <svg viewBox="0 0 179.82000000000002 179.82000000000002" height="179.82000000000002" width="179.82000000000002" id="textblock">
                          <g>
                            <svg viewBox="0 0 179.82000000000002 179.82000000000002" height="179.82000000000002" width="179.82000000000002">
                              <g transform="matrix(1,0,0,1,36.93002441959793,36.93002441959793)">
                                <svg viewBox="0 0 105.95995116080417 105.95995116080417" height="105.95995116080417" width="105.95995116080417">
                                  <g>
                                    <circle r="52.97997558040208" cx="52.97997558040208" cy="52.97997558040208" fill="#00d1cd" data-fill-palette-color="accent"/>
                                    <svg xmlns="http://www.w3.org/2000/svg" version="1.1" x="15.893992674120625" y="15.893992674120625" viewBox="2.4540212154388428 10.762625694274902 95.07918548583984 78.47138214111328" enable-background="new 0 0 100 100" height="74.17196581256292" width="74.17196581256292" class="icon-o-0" data-fill-palette-color="quaternary" id="o-0">
                                      <path d="M96.663 41.814c-0.57-0.796-1.426-1.415-2.343-1.783-0.228-0.095-0.457-0.174-0.729-0.251l-0.297-0.083-0.373-0.08c-0.463-0.093-0.955-0.159-1.482-0.17-0.527-0.008-1.091 0.048-1.663 0.194-0.571 0.144-1.145 0.389-1.663 0.711-1.05 0.647-1.828 1.552-2.423 2.428-1.187 1.774-1.878 3.547-2.632 5.203-0.743 1.654-1.518 3.201-2.454 4.489-0.899 1.255-2.026 2.19-3.184 2.823-2.862 0.981-5.225 2.215-6.711 0.28-0.972-1.266 0.076-2.371 1.132-3.655 0.252-0.282 0.504-0.575 0.758-0.895 0.611-0.785 1.188-1.611 1.708-2.479 0.528-0.862 1.006-1.761 1.456-2.672 0.451-0.911 0.861-1.847 1.206-2.807 0.686-1.919 1.142-3.93 1.256-5.943 0.106-2.011-0.103-4.01-0.628-5.85-0.128-0.46-0.284-0.908-0.455-1.345-0.105-0.283-0.148-0.378-0.262-0.647-0.099-0.239-0.193-0.438-0.299-0.65-0.414-0.836-0.907-1.603-1.463-2.289-1.105-1.372-2.474-2.432-3.935-3.011-0.729-0.287-1.469-0.464-2.182-0.513-0.696-0.058-1.402-0.013-2.038 0.166-0.641 0.174-1.211 0.497-1.638 0.898-0.431 0.4-0.715 0.869-0.876 1.32-0.32 0.898-0.183 1.768 0.271 2.23 0.221 0.229 0.477 0.309 0.629 0.333 0.156 0.024 0.233 0.016 0.233 0.016 0.19 0.006 0.35-0.143 0.356-0.334 0.005-0.19-0.145-0.35-0.334-0.355 0.004-0.007-0.167-0.001-0.283-0.185-0.061-0.093-0.11-0.261-0.102-0.49 0.009-0.227 0.081-0.506 0.234-0.781 0.299-0.559 0.946-1.053 1.831-1.148 0.443-0.053 0.93-0.021 1.456 0.105 0.513 0.122 1.027 0.341 1.524 0.637 0.987 0.603 1.9 1.543 2.585 2.713 0.344 0.583 0.63 1.222 0.846 1.894 0.053 0.165 0.108 0.347 0.145 0.499 0.028 0.119 0.114 0.418 0.122 0.535 0.062 0.364 0.112 0.732 0.15 1.104 0.146 1.488 0.026 3.042-0.335 4.562-0.351 1.522-0.906 3.023-1.663 4.423-0.378 0.7-0.796 1.379-1.259 2.021-0.465 0.642-0.992 1.235-1.536 1.794-0.55 0.557-1.125 1.077-1.71 1.563-0.59 0.493-1.173 0.98-1.746 1.459-0.318 0.266-0.632 0.532-0.942 0.8-2.504 2.059-3.968 2.98-5.023 3.301 1.051-2.851 1.656-5.973 1.656-8.879 0-8.508-5.38-11.035-11.558-11.953-6.177 0.918-11.556 3.444-11.556 11.953 0 2.848 0.582 5.9 1.593 8.704-1.666-0.7-4.031-2.383-6.438-5.454-0.62-0.879-1.271-1.773-1.959-2.68-0.347-0.435-0.678-0.887-1.021-1.343-0.353-0.449-0.692-0.915-1.038-1.387-0.679-0.948-1.343-1.941-1.947-2.992-0.145-0.265-0.29-0.531-0.436-0.799l-0.219-0.403c-0.018-0.039 0.008 0.025 0.001 0.008l-0.013-0.028-0.025-0.056-0.05-0.112-0.101-0.224-0.201-0.449-0.169-0.403c-0.113-0.263-0.225-0.542-0.333-0.829-0.434-1.136-0.808-2.301-1.069-3.483-0.538-2.36-0.658-4.801-0.153-7.084 0.491-2.281 1.615-4.404 3.27-6.077 1.643-1.675 3.764-2.912 5.951-3.536 1.09-0.315 2.202-0.483 3.233-0.443 0.258 0.008 0.507 0.033 0.75 0.067 0.119 0.021 0.24 0.038 0.354 0.065l0.174 0.039 0.222 0.055c0.556 0.139 1.074 0.284 1.52 0.465 0.45 0.178 0.818 0.385 1.133 0.655 0.319 0.264 0.59 0.605 0.83 1.004l0.089 0.151 0.021 0.038 0.012 0.019c0.017 0.034-0.01-0.026-0.003-0.011l0.047 0.093 0.093 0.185 0.06 0.134c0.082 0.169 0.151 0.389 0.208 0.582 0.1 0.399 0.133 0.801 0.098 1.204-0.081 0.804-0.428 1.606-0.925 2.301-0.193 0.257-0.483 0.546-0.774 0.751-0.298 0.212-0.619 0.378-0.95 0.489-0.661 0.219-1.348 0.247-1.942 0.098-0.15-0.03-0.29-0.083-0.43-0.13l-0.026-0.009c0.041 0.021 0.003 0.001 0.008 0.004l-0.015-0.006-0.059-0.027-0.117-0.054c-0.087-0.037-0.133-0.068-0.188-0.099-0.225-0.123-0.458-0.295-0.633-0.475-0.374-0.356-0.6-0.776-0.737-1.157-0.135-0.386-0.169-0.742-0.172-1.029 0.002-0.144 0.006-0.272 0.022-0.382 0.013-0.111 0.024-0.205 0.043-0.278 0.032-0.149 0.048-0.227 0.048-0.227l0.008-0.035c0.035-0.17-0.063-0.344-0.233-0.398-0.182-0.057-0.376 0.043-0.433 0.225 0 0-0.027 0.088-0.083 0.261-0.03 0.085-0.056 0.195-0.083 0.328-0.034 0.131-0.054 0.286-0.073 0.463-0.032 0.354-0.034 0.806 0.092 1.32 0.128 0.51 0.372 1.092 0.822 1.619 0.224 0.27 0.48 0.511 0.817 0.743 0.084 0.058 0.178 0.122 0.245 0.158l0.111 0.064 0.056 0.032 0.014 0.008 0.038 0.021 0.034 0.016c0.182 0.085 0.368 0.174 0.568 0.237 0.792 0.281 1.735 0.344 2.692 0.127 0.479-0.112 0.955-0.303 1.409-0.57 0.459-0.273 0.868-0.591 1.281-1.054 0.66-0.774 1.295-1.765 1.564-3.004 0.131-0.616 0.157-1.282 0.067-1.939-0.053-0.333-0.113-0.641-0.226-0.984l-0.082-0.25-0.072-0.194-0.035-0.097-0.062-0.141-0.099-0.221c-0.271-0.588-0.638-1.199-1.146-1.735-0.5-0.543-1.121-0.983-1.74-1.31-0.62-0.334-1.239-0.577-1.841-0.8l-0.214-0.079c-0.084-0.032-0.177-0.057-0.265-0.085-0.18-0.059-0.358-0.103-0.539-0.148-0.359-0.084-0.721-0.151-1.082-0.193-1.447-0.178-2.889-0.072-4.306 0.209-2.826 0.581-5.578 1.907-7.9 3.93-2.323 2.011-4.128 4.801-5.003 7.855-0.882 3.058-0.891 6.258-0.408 9.204 0.234 1.481 0.599 2.909 1.028 4.282 0.106 0.342 0.219 0.686 0.345 1.037l0.184 0.52 0.173 0.46c0.245 0.657 0.488 1.31 0.729 1.957 0.998 2.561 2.042 5.036 3.328 7.204 0.18 0.307 0.365 0.604 0.555 0.897 2.882 4.694 5.864 5.368 4.19 7.166-0.859 0.922-2.388 1.17-4.031 0.969-0.037-0.005-0.074-0.008-0.109-0.013-0.095-0.013-0.191-0.03-0.287-0.046-0.154-0.025-0.309-0.056-0.463-0.087-0.101-0.021-0.202-0.042-0.304-0.065-0.03-0.007-0.06-0.015-0.089-0.021-0.758-0.189-1.509-0.459-2.203-0.791l-0.304-0.154c-1.196-0.63-2.366-1.583-3.297-2.873-0.94-1.284-1.719-2.829-2.467-4.481-0.759-1.653-1.456-3.425-2.648-5.195-0.597-0.875-1.378-1.776-2.43-2.422-0.519-0.319-1.093-0.563-1.665-0.706-0.572-0.144-1.136-0.198-1.664-0.188-0.527 0.011-1.02 0.08-1.48 0.173l-0.373 0.082-0.297 0.084c-0.271 0.078-0.501 0.157-0.729 0.252-0.916 0.373-1.77 0.993-2.337 1.792-0.578 0.792-0.849 1.712-0.869 2.552-0.024 0.843 0.171 1.621 0.512 2.271 0.339 0.652 0.835 1.182 1.402 1.512 0.567 0.335 1.187 0.441 1.697 0.41 0.517-0.026 0.934-0.175 1.268-0.321 0.332-0.153 0.585-0.317 0.779-0.46 0.194-0.141 0.333-0.258 0.424-0.338 0.09-0.081 0.137-0.123 0.137-0.123 0.117-0.104 0.152-0.279 0.074-0.424-0.092-0.168-0.301-0.229-0.47-0.139l-0.017 0.01c0 0-0.049 0.027-0.145 0.078-0.095 0.053-0.237 0.126-0.426 0.205-0.367 0.156-0.956 0.362-1.586 0.258-0.618-0.096-1.206-0.573-1.434-1.398-0.114-0.402-0.127-0.87-0.017-1.31 0.113-0.438 0.334-0.841 0.664-1.138 0.329-0.3 0.762-0.507 1.291-0.612 0.133-0.029 0.275-0.046 0.381-0.055l0.276-0.027 0.019-0.002c0.015-0.002-0.057 0.011-0.02 0.005l0.029-0.001 0.061-0.002 0.12-0.004c0.317-0.008 0.625 0.007 0.907 0.054 0.569 0.097 0.997 0.292 1.35 0.618 0.356 0.321 0.688 0.809 0.989 1.449 0.301 0.637 0.566 1.396 0.821 2.213 0.266 0.856 0.535 1.723 0.807 2.597 0.565 1.812 1.237 3.77 2.287 5.692 1.037 1.922 2.431 3.835 4.275 5.34l0.657 0.517c0.27 0.2 0.501 0.351 0.759 0.518 0.511 0.318 1.042 0.606 1.591 0.851 1.098 0.484 2.254 0.818 3.39 0.968 0.672 0.097 1.329 0.13 1.973 0.122 0.006 0.01 0.011 0.02 0.011 0.02s2.691-0.029 3.824 1.166c0.34 0.359 0.71 0.787 0.54 1.771-0.208 1.201-0.865 1.76-2.6 1.709-0.001 0-0.002 0-0.002 0-1.434-0.112-2.92-0.157-4.384-0.012-1.462 0.138-2.897 0.499-4.15 1.066-0.632 0.292-1.185 0.583-1.785 1.021-0.315 0.229-0.563 0.47-0.81 0.742-0.234 0.282-0.445 0.578-0.602 0.906-0.328 0.647-0.446 1.373-0.369 2.026 0.078 0.656 0.337 1.239 0.7 1.685 0.364 0.445 0.825 0.763 1.296 0.914 0.471 0.156 0.927 0.162 1.304 0.097 0.758-0.151 1.213-0.493 1.487-0.725 0.146-0.111 0.232-0.217 0.302-0.278 0.064-0.064 0.099-0.098 0.099-0.098 0.11-0.108 0.137-0.283 0.054-0.423-0.098-0.163-0.309-0.216-0.474-0.118l-0.03 0.018c0 0-0.036 0.021-0.103 0.062-0.069 0.035-0.162 0.108-0.298 0.166-0.258 0.134-0.67 0.293-1.134 0.274-0.23-0.016-0.465-0.081-0.674-0.215-0.211-0.129-0.388-0.338-0.515-0.586-0.25-0.51-0.205-1.199 0.231-1.693 0.201-0.251 0.521-0.484 0.867-0.647 0.35-0.173 0.881-0.336 1.378-0.442 1.016-0.224 2.113-0.25 3.268-0.138 1.155 0.11 2.366 0.384 3.642 0.712 0.641 0.168 1.295 0.35 1.979 0.53 0.098 0.036 0.197 0.069 0.302 0.098 3.94 1.082 8.796 5.32 5.369 10.059-0.117 0.134-0.237 0.264-0.362 0.387-0.823 0.828-1.84 1.437-3.015 1.824-0.29 0.101-0.593 0.176-0.895 0.257-0.156 0.033-0.309 0.065-0.462 0.099-0.046 0.029-0.371 0.06-0.409 0.071-0.466 0.069-1.036 0.039-1.547-0.073-1.032-0.232-1.993-0.771-2.494-1.471-0.252-0.347-0.381-0.725-0.395-1.118 0.001-0.044-0.008-0.111 0.001-0.138 0.011-0.062 0.023-0.138 0.033-0.169 0.016-0.074 0.047-0.182 0.082-0.271 0.068-0.188 0.161-0.365 0.269-0.529 0.431-0.661 1.071-1.045 1.588-1.108 0.524-0.07 0.935 0.131 1.18 0.315 0.126 0.091 0.217 0.174 0.274 0.232 0.06 0.059 0.09 0.09 0.09 0.09l0.021 0.021c0.121 0.123 0.317 0.136 0.457 0.025 0.148-0.118 0.173-0.335 0.055-0.483 0 0-0.033-0.043-0.098-0.124s-0.166-0.201-0.321-0.341c-0.151-0.142-0.36-0.306-0.649-0.439-0.285-0.137-0.656-0.229-1.071-0.223-0.835 0.019-1.775 0.474-2.476 1.324-0.175 0.214-0.336 0.453-0.472 0.724-0.069 0.136-0.127 0.269-0.185 0.439-0.033 0.093-0.046 0.143-0.065 0.207l-0.068 0.25c-0.173 0.651-0.111 1.42 0.158 2.109 0.267 0.693 0.714 1.312 1.254 1.844 0.541 0.534 1.19 0.975 1.917 1.322 0.737 0.343 1.521 0.593 2.452 0.685 0.31 0.021 0.335 0.038 0.641 0.037 0.198 0.003 0.398 0.006 0.599 0.009 0.403-0.01 0.813-0.023 1.232-0.073 0.836-0.089 1.704-0.265 2.566-0.56s1.711-0.718 2.497-1.237c1.581-1.047 2.845-2.46 3.85-3.882 0.508-0.713 0.958-1.436 1.388-2.147 0.251-0.414 0.498-0.825 0.747-1.238 1.141-1.459 3.063-2.752 5.271-3.069 2.537 0.072 4.798 1.493 6.08 3.122 0.249 0.412 0.498 0.823 0.75 1.236 0.432 0.711 0.885 1.433 1.395 2.144 1.008 1.418 2.277 2.828 3.86 3.869 0.788 0.518 1.638 0.938 2.501 1.23 0.863 0.293 1.731 0.465 2.568 0.553 0.419 0.049 0.83 0.06 1.232 0.068 0.2-0.003 0.4-0.007 0.599-0.01 0.305 0 0.331-0.018 0.641-0.039 0.931-0.095 1.714-0.347 2.449-0.692 0.726-0.35 1.374-0.792 1.914-1.327 0.538-0.533 0.984-1.153 1.248-1.848 0.267-0.689 0.327-1.459 0.151-2.109l-0.068-0.25c-0.021-0.064-0.033-0.115-0.066-0.207-0.059-0.172-0.116-0.303-0.186-0.44-0.137-0.269-0.299-0.508-0.475-0.721-0.702-0.849-1.643-1.301-2.479-1.316-0.416-0.006-0.787 0.087-1.071 0.226-0.288 0.135-0.497 0.3-0.648 0.44-0.154 0.141-0.256 0.261-0.319 0.343-0.064 0.081-0.098 0.124-0.098 0.124-0.107 0.136-0.099 0.332 0.027 0.457 0.133 0.134 0.352 0.134 0.486 0l0.021-0.021c0 0 0.029-0.031 0.089-0.09 0.058-0.06 0.148-0.143 0.273-0.233 0.245-0.186 0.655-0.387 1.179-0.318 0.518 0.062 1.159 0.443 1.592 1.104 0.106 0.163 0.2 0.341 0.271 0.527 0.035 0.091 0.066 0.198 0.083 0.272 0.009 0.03 0.021 0.106 0.034 0.168 0.008 0.027 0 0.094 0.001 0.138-0.015 0.395-0.142 0.772-0.393 1.119-0.499 0.701-1.458 1.243-2.489 1.479-0.511 0.114-1.081 0.146-1.546 0.078-0.039-0.012-0.363-0.041-0.41-0.07-0.152-0.032-0.307-0.065-0.461-0.098-0.303-0.079-0.606-0.153-0.897-0.254-1.176-0.383-2.193-0.989-3.02-1.814-0.123-0.122-0.243-0.251-0.36-0.383-3.446-4.729 1.398-8.983 5.337-10.077 0.104-0.029 0.203-0.063 0.302-0.1 0.684-0.183 1.336-0.366 1.977-0.535 1.274-0.332 2.484-0.608 3.639-0.724s2.252-0.092 3.269 0.129c0.498 0.104 1.029 0.266 1.379 0.438 0.347 0.161 0.668 0.393 0.87 0.643 0.438 0.494 0.484 1.185 0.235 1.693-0.126 0.249-0.303 0.459-0.513 0.589-0.208 0.134-0.443 0.2-0.673 0.216-0.465 0.021-0.876-0.138-1.135-0.271-0.137-0.058-0.229-0.131-0.298-0.166-0.068-0.04-0.103-0.061-0.103-0.061l-0.031-0.019c-0.134-0.08-0.309-0.062-0.423 0.055-0.134 0.137-0.132 0.354 0.005 0.488 0 0 0.034 0.033 0.1 0.097 0.069 0.062 0.155 0.167 0.303 0.278 0.274 0.229 0.729 0.57 1.487 0.72 0.378 0.063 0.834 0.058 1.305-0.101 0.471-0.153 0.93-0.472 1.293-0.918 0.362-0.446 0.619-1.031 0.695-1.687 0.075-0.654-0.045-1.38-0.375-2.025-0.157-0.327-0.369-0.623-0.604-0.903-0.247-0.272-0.496-0.512-0.812-0.741-0.602-0.437-1.156-0.726-1.788-1.016-1.255-0.563-2.691-0.922-4.153-1.054-1.466-0.143-2.952-0.093-4.387 0.024-1.733 0.056-2.393-0.501-2.604-1.701-0.173-0.984 0.195-1.414 0.535-1.774 1.128-1.196 3.82-1.178 3.82-1.178s0.006-0.009 0.011-0.018c0.643 0.005 1.3-0.03 1.972-0.128 1.136-0.153 2.29-0.49 3.388-0.979 0.547-0.246 1.077-0.536 1.587-0.854 0.258-0.169 0.489-0.32 0.758-0.521l0.655-0.519c1.841-1.511 3.229-3.428 4.26-5.353 1.043-1.927 1.71-3.886 2.271-5.699 0.269-0.875 0.535-1.742 0.799-2.6 0.252-0.817 0.516-1.578 0.815-2.215 0.299-0.642 0.63-1.129 0.984-1.452 0.352-0.327 0.779-0.522 1.347-0.622 0.283-0.047 0.591-0.063 0.909-0.056l0.118 0.004 0.061 0.002 0.029 0c0.038 0.006-0.033-0.008-0.019-0.005l0.019 0.001 0.275 0.026c0.106 0.008 0.25 0.025 0.383 0.053 0.528 0.104 0.962 0.31 1.291 0.607 0.331 0.297 0.555 0.7 0.669 1.137 0.11 0.439 0.1 0.907-0.014 1.309-0.226 0.826-0.812 1.307-1.43 1.404-0.629 0.105-1.219-0.099-1.586-0.254-0.188-0.078-0.331-0.151-0.427-0.203s-0.146-0.078-0.146-0.078l-0.017-0.01c-0.139-0.075-0.315-0.047-0.424 0.076-0.126 0.143-0.112 0.362 0.031 0.488 0 0 0.047 0.041 0.138 0.122 0.09 0.079 0.229 0.196 0.424 0.337 0.194 0.142 0.448 0.306 0.781 0.457 0.334 0.146 0.751 0.293 1.269 0.318 0.51 0.028 1.129-0.08 1.695-0.416 0.566-0.332 1.062-0.863 1.397-1.516 0.339-0.652 0.531-1.43 0.506-2.272C97.517 43.525 97.244 42.604 96.663 41.814z" fill="#444444" data-fill-palette-color="quaternary"/>
                                    </svg>
                                  </g>
                                </svg>
                              </g>
                              <g>
                                <path d="M0 67.857l2.035-5.64c0.706-1.956 1.339-3.332 1.899-4.128 0.554-0.798 1.064-1.328 1.532-1.59v0c1.035-0.581 2.305-0.6 3.811-0.057v0c1.131 0.408 1.983 1.397 2.557 2.969v0c1.329-1.257 3.055-1.503 5.176-0.738v0c1.651 0.596 2.685 1.579 3.103 2.95 0.408 1.375 0.265 3.154-0.429 5.336v0l-2.555 7.079-2.147-0.495c-0.208-0.319-0.316-0.875-0.324-1.667v0l-11.347-4.095c-0.493 0.59-0.941 0.946-1.343 1.066v0zM12.2 64.453v0l-0.797 2.21 4.715 1.702 0.619-1.715c0.406-1.124 0.548-2.035 0.426-2.732-0.122-0.697-0.614-1.202-1.478-1.513-0.857-0.309-1.558-0.307-2.102 0.006-0.546 0.32-1.007 1-1.383 2.042zM4.868 62.841v0l-0.468 1.295 4.297 1.551 0.736-2.039c0.305-0.845 0.322-1.567 0.05-2.168-0.271-0.6-0.718-1.013-1.341-1.237-0.616-0.222-1.139-0.235-1.569-0.039-0.426 0.205-0.748 0.502-0.967 0.89-0.212 0.39-0.459 0.972-0.738 1.747z" fill="#ffffff" data-fill-palette-color="primary"/>
                                <path d="M29.102 49.98c-1.443 2.04-3.112 3.15-5.009 3.33-1.897 0.18-4.163-0.662-6.798-2.526-2.635-1.864-4.187-3.797-4.657-5.799-0.469-2.002 0.025-4.035 1.483-6.096 1.458-2.062 3.105-3.204 4.942-3.427 1.842-0.219 4.075 0.599 6.699 2.455 2.63 1.86 4.204 3.825 4.724 5.897 0.52 2.071 0.059 4.127-1.384 6.166zM15.963 43.826c0.378 1.045 1.496 2.224 3.354 3.538 1.852 1.31 3.396 1.992 4.63 2.047 1.229 0.051 2.181-0.401 2.856-1.354 0.678-0.959 0.808-1.984 0.389-3.075-0.421-1.1-1.558-2.305-3.411-3.615v0c-3.451-2.441-5.909-2.625-7.375-0.552v0c-0.678 0.959-0.826 1.963-0.443 3.011z" fill="#ffffff" data-fill-palette-color="primary"/>
                                <path d="M48.258 28.038l1.168 1.869-3.415 2.752-10.519-3.724-0.249-7.33c-0.528 0.131-0.944 0.163-1.25 0.096v0l-1.136-1.829 4.684-3.775 1.554 1.492c-0.017 0.378-0.198 0.884-0.545 1.519v0l-0.029 7.243 7.196 2.279c1.041-0.527 1.888-0.724 2.541-0.592zM26.012 25.389l4.811-3.877 1.578 1.538c-0.004 0.437-0.191 0.973-0.562 1.61v0l7.569 9.392c0.72-0.225 1.279-0.302 1.674-0.23v0l1.168 1.868-4.81 3.877-1.578-1.538c-0.012-0.381 0.184-0.912 0.589-1.593v0l-7.57-9.392c-0.728 0.248-1.295 0.319-1.701 0.213v0z" fill="#ffffff" data-fill-palette-color="primary"/>
                                <path d="M63.628 16.072c0.922 2.117 1.125 3.896 0.61 5.334-0.512 1.445-1.843 2.636-3.991 3.571-2.142 0.932-3.866 1.083-5.172 0.451-1.3-0.635-2.417-2.026-3.352-4.175v0l-3.399-7.81c-0.713 0.038-1.275-0.045-1.688-0.248v0l-0.632-2.111 5.665-2.466 1.115 1.901c-0.125 0.423-0.451 0.892-0.978 1.408v0l3.444 7.913c0.507 1.164 1.072 1.938 1.695 2.322 0.62 0.393 1.422 0.375 2.407-0.054 0.984-0.428 1.554-1.015 1.708-1.76 0.152-0.751-0.017-1.69-0.508-2.816v0l-3.443-7.912c-0.768 0.047-1.33-0.036-1.688-0.249v0l-0.631-2.111 5.302-2.308 1.115 1.901c-0.125 0.423-0.451 0.892-0.978 1.409v0z" fill="#ffffff" data-fill-palette-color="primary"/>
                                <path d="M75.194 9.96v0l0.942 6.874c0.675 0.153 1.198 0.408 1.567 0.766v0l0.016 2.053-5.128 0.703-0.537-1.981c0.259-0.444 0.697-0.832 1.313-1.162v0l-1.657-12.081c-0.752-0.163-1.294-0.419-1.628-0.768v0l-0.015-2.043 5.389-0.739 6.598 9.431c0.481 0.677 0.99 1.602 1.526 2.776v0l0.266 0.597 0.277-0.14c-0.456-1.485-0.754-2.742-0.895-3.772v0l-0.929-6.773c-0.662-0.155-1.186-0.42-1.571-0.797v0l-0.014-2.043 5.127-0.703 0.536 1.971c-0.277 0.467-0.713 0.864-1.309 1.192v0l2.063 15.041-4.104 0.563-6.66-9.504c-0.481-0.677-0.991-1.609-1.529-2.796v0l-0.263-0.577-0.277 0.14c0.456 1.485 0.754 2.742 0.896 3.772z" fill="#ffffff" data-fill-palette-color="primary"/>
                                <path d="M100.807 19.665c-2.474-0.347-4.226-1.323-5.255-2.927-1.029-1.604-1.32-4.004-0.87-7.2 0.449-3.196 1.456-5.462 3.02-6.796 1.565-1.335 3.598-1.827 6.099-1.476 2.501 0.351 4.271 1.292 5.31 2.822 1.039 1.537 1.335 3.897 0.888 7.08-0.448 3.189-1.473 5.49-3.076 6.901-1.603 1.411-3.641 1.943-6.116 1.596zM100.256 5.166c-0.755 0.814-1.291 2.348-1.607 4.602-0.316 2.247-0.215 3.931 0.302 5.054 0.518 1.116 1.356 1.755 2.513 1.918 1.163 0.163 2.134-0.191 2.911-1.064 0.785-0.878 1.335-2.441 1.65-4.688v0c0.588-4.186-0.375-6.455-2.889-6.808v0c-1.163-0.163-2.123 0.165-2.88 0.986z" fill="#ffffff" data-fill-palette-color="primary"/>
                                <path d="M130.142 26.885l3.017-6.158c0.312-0.637 0.848-1.592 1.608-2.866v0l0.321-0.542-0.223-0.143c-1.023 1.168-1.862 2.08-2.514 2.738v0l-7.698 7.721-3.146-1.542 1.221-10.894c0.044-0.858 0.208-1.875 0.492-3.053v0l0.131-0.612-0.25-0.089c-0.55 1.475-1.054 2.679-1.511 3.613v0l-3.053 6.231c0.475 0.503 0.766 1.007 0.873 1.51v0l-1.132 1.712-4.648-2.277 0.66-1.944c0.463-0.224 1.042-0.301 1.737-0.231v0l5.366-10.951c-0.533-0.554-0.841-1.07-0.923-1.546v0l1.128-1.703 5.402 2.647-1.214 11.248c-0.068 1.26-0.251 2.354-0.549 3.284v0l-0.128 0.444 0.328 0.161c0.533-0.934 1.353-1.886 2.459-2.855v0l7.972-7.937 5.311 2.603-0.655 1.935c-0.427 0.227-1.023 0.3-1.787 0.218v0l-5.317 10.85c0.5 0.546 0.799 1.038 0.9 1.479v0l-1.199 1.848-5.412-2.651 0.718-2.063c0.409-0.191 0.981-0.252 1.715-0.185z" fill="#ffffff" data-fill-palette-color="primary"/>
                                <path d="M154.225 26.179l2.563 2.551-7.014 14.497c0.331 0.711 0.48 1.298 0.448 1.761v0l-1.729 1.365-4.379-4.359 1.357-1.736c0.348-0.053 0.833 0.058 1.454 0.333v0l1.062-2.072-3.747-3.73-1.974 1.05c0.264 0.606 0.385 1.135 0.362 1.59v0l-1.73 1.364-4.271-4.251 1.357-1.736c0.511-0.063 1.165 0.117 1.963 0.539v0zM152.895 30.071l-0.265-0.264c-0.757 0.761-1.794 1.491-3.111 2.191v0l-3.04 1.59 2.678 2.665 1.561-2.99c0.585-1.162 1.21-2.115 1.877-2.862v0z" fill="#ffffff" data-fill-palette-color="primary"/>
                                <path d="M164.513 50.705l0.197 0.342c0.422-0.119 1.192-0.198 2.31-0.235v0l2.15-0.085c-0.08-0.664-0.053-1.178 0.079-1.543v0l2.026-0.867 3.016 5.217-1.763 1.323c-0.492-0.082-1.077-0.426-1.755-1.033v0l-6.514-0.199-3.723 6.269c0.155 0.807 0.155 1.428-0.001 1.861v0l-2.025 0.867-3.092-5.349 1.762-1.323c0.321 0.056 0.719 0.251 1.192 0.586v0l1.642-2.341c0.554-0.835 1.032-1.447 1.432-1.834v0l0.213-0.217-0.197-0.342c-0.601 0.16-1.453 0.286-2.555 0.377v0l-2.785 0.241c0.069 0.686 0.043 1.207-0.078 1.566v0l-2.025 0.867-3.011-5.208 1.762-1.323c0.498 0.079 1.081 0.42 1.75 1.024v0l7.262-0.046 3.104-5.76c-0.17-0.861-0.169-1.493 0.004-1.897v0l2.025-0.867 3.092 5.349-1.762 1.323c-0.36-0.057-0.741-0.243-1.141-0.557v0l-1.191 1.905c-0.53 0.837-0.997 1.473-1.4 1.909z" fill="#ffffff" data-fill-palette-color="primary"/>
                                <path d="M177.877 62.114l1.943 5.865-1.994 0.938c-0.408-0.157-0.845-0.52-1.311-1.091v0l-11.451 3.793c-0.042 0.754-0.166 1.303-0.371 1.649v0l-2.16 0.438-1.942-5.865 1.994-0.938c0.361 0.122 0.789 0.493 1.285 1.111v0l11.451-3.794c0.023-0.769 0.155-1.325 0.397-1.668v0z" fill="#ffffff" data-fill-palette-color="primary"/>
                                <path d="M13.811 120.271v0l-4.742 0.535-0.615-1.791 6.084-4.176c0.008-0.352 0.066-0.608 0.176-0.767v0l1.007-0.218 0.92 2.683-0.928 0.447c-0.197-0.075-0.396-0.239-0.597-0.491v0l-3.147 2c-0.457 0.292-0.915 0.557-1.376 0.794v0l-0.192 0.098 0.056 0.163c0.462-0.151 1.036-0.266 1.724-0.345v0l5.081-0.577 0.611 1.782-4.335 2.655c-0.525 0.323-0.987 0.578-1.387 0.765v0l-0.204 0.091 0.056 0.163c0.479-0.143 1.063-0.24 1.753-0.291v0l3.726-0.251c0.003-0.365 0.07-0.638 0.2-0.818v0l1.007-0.217 0.882 2.567-0.928 0.447c-0.236-0.083-0.474-0.29-0.717-0.621v0l-7.338 0.334-0.625-1.82 4.072-2.458c0.486-0.288 0.973-0.545 1.46-0.769v0l0.229-0.111-0.055-0.162c-0.547 0.152-1.167 0.272-1.858 0.359z" fill="#ffffff" data-fill-palette-color="primary"/>
                                <path d="M16.661 133.656l-1.925 0.929-2.48-5.135 0.868-0.554c0.169 0.039 0.389 0.183 0.66 0.435v0l5.062-2.445c-0.037-0.357-0.011-0.621 0.079-0.791v0l0.974-0.336 2.44 5.053-1.933 0.934-0.497-0.773c0.07-0.244 0.277-0.513 0.623-0.807v0l-0.837-1.732-1.897 0.916 0.744 1.541c0.263-0.015 0.463 0.005 0.602 0.058v0l0.252 0.733-1.97 0.951-0.426-0.649c0.026-0.133 0.135-0.302 0.329-0.507v0l-0.744-1.541-2.116 1.022 0.881 1.824c0.427-0.094 0.765-0.092 1.014 0.004v0z" fill="#ffffff" data-fill-palette-color="primary"/>
                                <path d="M23.465 145.321l2.616-1.844c0.265-0.187 0.694-0.456 1.289-0.809v0l0.257-0.144-0.053-0.111c-0.683 0.25-1.231 0.434-1.644 0.551v0l-4.877 1.431-0.94-1.333 2.941-4.179c0.209-0.337 0.504-0.715 0.886-1.133v0l0.191-0.221-0.092-0.096c-0.553 0.481-1.026 0.859-1.418 1.135v0l-2.649 1.867c0.081 0.314 0.087 0.587 0.018 0.818v0l-0.839 0.443-1.389-1.97 0.7-0.642c0.24 0.013 0.495 0.11 0.763 0.292v0l4.644-3.274c-0.095-0.346-0.107-0.627-0.035-0.842v0l0.854-0.44 1.61 2.284-3.018 4.333c-0.309 0.499-0.629 0.901-0.958 1.208v0l-0.15 0.156 0.099 0.14c0.428-0.26 0.974-0.464 1.639-0.61v0l5.037-1.468 1.587 2.252-0.708 0.647c-0.223 0-0.481-0.103-0.775-0.308v0l-4.603 3.244c0.087 0.335 0.102 0.602 0.043 0.8v0l-0.906 0.49-1.616-2.294 0.757-0.682c0.206 0.012 0.453 0.115 0.739 0.309z" fill="#ffffff" data-fill-palette-color="primary"/>
                                <path d="M33.134 145.859l1.141 1.235-3.547 6.62c0.145 0.335 0.206 0.61 0.182 0.824v0l-0.833 0.605-1.96-2.119 0.668-0.783c0.163-0.013 0.387 0.051 0.674 0.191v0l0.531-0.947-1.671-1.807-0.935 0.451c0.108 0.286 0.154 0.534 0.136 0.744v0l-0.834 0.605-1.905-2.06 0.669-0.783c0.24-0.019 0.539 0.076 0.899 0.285v0zM32.441 147.646l-0.117-0.127c-0.367 0.339-0.867 0.659-1.5 0.96v0l-1.438 0.682 1.196 1.293 0.777-1.367c0.298-0.524 0.608-0.953 0.932-1.289v0z" fill="#ffffff" data-fill-palette-color="primary"/>
                                <path d="M37.533 160.428l-0.766 0.689-1.537-1.35 0.872-5.124 3.342-0.705c-0.106-0.228-0.154-0.413-0.144-0.558v0l0.753-0.673 2.108 1.851-0.57 0.834c-0.171 0.021-0.418-0.021-0.74-0.124v0l-3.322 0.56-0.47 3.483c0.325 0.438 0.483 0.811 0.474 1.117zM36.978 150.008l2.162 1.897-0.584 0.849c-0.199 0.032-0.46-0.013-0.784-0.135v0l-3.708 4.224c0.16 0.32 0.24 0.57 0.242 0.752v0l-0.766 0.688-2.162-1.897 0.584-0.849c0.17-0.03 0.429 0.018 0.777 0.143v0l3.709-4.224c-0.174-0.314-0.252-0.567-0.236-0.76v0z" fill="#ffffff" data-fill-palette-color="primary"/>
                                <path d="M44.01 163.756l-1.251 1.732-4.623-3.337 0.5-0.9c0.167-0.046 0.429-0.023 0.787 0.068v0l3.29-4.558c-0.203-0.296-0.305-0.541-0.308-0.733v0l0.698-0.759 4.549 3.284-1.256 1.741-0.805-0.443c-0.055-0.248 0-0.583 0.164-1.006v0l-1.56-1.126-1.233 1.708 1.388 1.002c0.224-0.138 0.41-0.216 0.557-0.235v0l0.571 0.524-1.281 1.774-0.683-0.368c-0.04-0.129-0.024-0.33 0.048-0.603v0l-1.388-1.002-1.375 1.906 1.642 1.185c0.331-0.286 0.629-0.445 0.895-0.478v0z" fill="#ffffff" data-fill-palette-color="primary"/>
                                <path d="M52.423 169.803l-0.58 0.851-2.552-1.329 0.365-0.963c0.158-0.07 0.421-0.085 0.789-0.046v0l0.65-1.248 0.149-4.628c-0.282-0.292-0.445-0.548-0.49-0.769v0l0.543-0.802 0.005-0.009 0.032-0.04 2.552 1.329-0.365 0.963c-0.149 0.082-0.372 0.107-0.667 0.075v0l-0.067 1.027c-0.04 0.588-0.105 1.159-0.196 1.714v0l-0.04 0.253 0.161 0.084c0.43-0.446 0.916-0.889 1.458-1.33v0l0.767-0.617c-0.234-0.267-0.368-0.492-0.401-0.677v0l0.589-0.847 2.48 1.291-0.365 0.964c-0.231 0.093-0.542 0.106-0.934 0.039v0l-3.639 2.798-0.65 1.249c0.225 0.269 0.36 0.492 0.406 0.668z" fill="#ffffff" data-fill-palette-color="primary"/>
                                <path d="M58.076 173.563c-1.076-0.437-1.756-1.077-2.04-1.922-0.287-0.838-0.147-1.954 0.42-3.349 0.567-1.395 1.282-2.304 2.146-2.725 0.857-0.424 1.83-0.415 2.918 0.026 1.089 0.442 1.782 1.066 2.082 1.873 0.29 0.81 0.154 1.91-0.41 3.299-0.564 1.389-1.288 2.312-2.174 2.768-0.885 0.457-1.866 0.467-2.942 0.03zM59.473 166.948c-0.429 0.285-0.843 0.918-1.242 1.901-0.396 0.976-0.542 1.748-0.437 2.315 0.105 0.567 0.411 0.954 0.917 1.159 0.5 0.203 0.978 0.149 1.432-0.162 0.452-0.305 0.877-0.948 1.276-1.93v0c0.739-1.82 0.561-2.953-0.533-3.398v0c-0.507-0.206-0.978-0.167-1.413 0.115z" fill="#ffffff" data-fill-palette-color="primary"/>
                                <path d="M70.533 174.294c-0.293 1.033-0.745 1.733-1.355 2.1-0.61 0.367-1.437 0.402-2.483 0.105-1.052-0.299-1.719-0.755-2.002-1.368-0.282-0.614-0.274-1.443 0.023-2.489v0l1.088-3.829c-0.267-0.195-0.447-0.39-0.539-0.585v0l0.406-0.948 2.767 0.786-0.163 1.017c-0.172 0.112-0.428 0.184-0.766 0.214v0l-1.099 3.868c-0.162 0.572-0.188 1.02-0.077 1.347 0.104 0.324 0.397 0.555 0.877 0.691 0.481 0.137 0.862 0.091 1.145-0.138 0.274-0.224 0.49-0.612 0.647-1.164v0l1.099-3.867c-0.292-0.209-0.471-0.404-0.54-0.585v0l0.397-0.951 2.591 0.736-0.162 1.018c-0.166 0.114-0.421 0.186-0.766 0.214v0z" fill="#ffffff" data-fill-palette-color="primary"/>
                                <path d="M79.69 173.029v0c-0.094 0.546-0.347 0.975-0.758 1.287-0.41 0.313-0.889 0.521-1.434 0.625v0c0.37 0.235 0.601 0.488 0.691 0.757v0l0.587 1.839c0.364 0.193 0.598 0.388 0.7 0.584v0l-0.28 0.907-2.046-0.354-0.884-3.206c-0.075-0.321-0.198-0.497-0.371-0.527v0l-0.789-0.136-0.335 1.936c0.57 0.229 0.912 0.449 1.027 0.661v0l-0.295 0.987-3.273-0.567 0.055-1.028c0.129-0.115 0.375-0.209 0.737-0.284v0l0.959-5.539c-0.312-0.177-0.511-0.352-0.598-0.524v0l0.295-0.988 3.093 0.536c1.128 0.216 1.934 0.544 2.42 0.984 0.492 0.442 0.658 1.125 0.499 2.05zM76.452 171.307v0l-0.719-0.125-0.397 2.296 0.698 0.121c0.546 0.094 0.969 0.082 1.271-0.037 0.3-0.112 0.488-0.385 0.563-0.818 0.074-0.426-0.014-0.749-0.264-0.971-0.243-0.22-0.627-0.376-1.152-0.466z" fill="#ffffff" data-fill-palette-color="primary"/>
                                <path d="M85.145 171.047l2.874 0.136 0.073 1.028c-0.136 0.149-0.368 0.277-0.698 0.382v0l-0.267 5.615c0.324 0.151 0.544 0.296 0.659 0.437v0l-0.17 1.016-2.873-0.136-0.073-1.028c0.114-0.13 0.347-0.254 0.697-0.372v0l0.267-5.615c-0.331-0.137-0.551-0.286-0.658-0.447v0z" fill="#ffffff" data-fill-palette-color="primary"/>
                                <path d="M92.929 179.55v0l-3.138 0.112-0.158-1.018c0.103-0.139 0.324-0.282 0.664-0.429v0l-0.201-5.618c-0.342-0.109-0.573-0.24-0.693-0.391v0l0.085-1.026 2.743-0.098c1.316-0.047 2.375 0.287 3.178 1.001 0.802 0.708 1.229 1.777 1.28 3.208 0.051 1.431-0.263 2.486-0.941 3.165-0.678 0.686-1.618 1.051-2.819 1.094zM91.854 172.443l0.207 5.8 0.891-0.032c0.614-0.022 1.093-0.228 1.437-0.619 0.344-0.384 0.497-1.112 0.459-2.185v0c-0.073-2.045-0.885-3.039-2.437-2.984v0z" fill="#ffffff" data-fill-palette-color="primary"/>
                                <path d="M104.232 176.301l0.287 2.118-5.65 0.766-0.258-0.998c0.089-0.148 0.295-0.313 0.618-0.492v0l-0.755-5.571c-0.351-0.075-0.594-0.182-0.728-0.32v0l-0.017-1.03 5.56-0.753 0.289 2.127-0.889 0.233c-0.21-0.142-0.401-0.423-0.574-0.842v0l-1.907 0.259 0.283 2.087 1.696-0.23c0.068-0.254 0.148-0.439 0.242-0.554v0l0.775-0.013 0.294 2.168-0.749 0.204c-0.118-0.066-0.245-0.222-0.381-0.47v0l-1.696 0.23 0.316 2.328 2.007-0.272c0.043-0.435 0.15-0.756 0.319-0.963v0z" fill="#ffffff" data-fill-palette-color="primary"/>
                                <path d="M107.096 169.066l1.633-0.399 4.068 6.314c0.363 0.036 0.633 0.116 0.809 0.24v0l0.125 1.022-2.804 0.686-0.361-0.964c0.068-0.149 0.233-0.314 0.494-0.497v0l-0.57-0.924-2.391 0.585-0.059 1.036c0.303 0.044 0.541 0.125 0.716 0.242v0l0.125 1.023-2.725 0.667-0.361-0.965c0.099-0.219 0.328-0.435 0.686-0.648v0zM108.322 170.539l-0.168 0.041c0.119 0.485 0.156 1.078 0.112 1.777v0l-0.102 1.588 1.712-0.418-0.818-1.343c-0.313-0.514-0.539-0.994-0.676-1.441v0z" fill="#ffffff" data-fill-palette-color="primary"/>
                                <path d="M116.54 167.773v0c-0.292 0.023-0.579 0.083-0.859 0.181-0.287 0.1-0.495 0.251-0.625 0.453-0.121 0.207-0.137 0.437-0.048 0.693 0.091 0.261 0.229 0.442 0.414 0.542 0.179 0.102 0.481 0.14 0.907 0.113v0l1.14-0.054c0.61-0.034 1.141 0.064 1.593 0.293 0.451 0.229 0.794 0.678 1.026 1.348v0c0.273 0.784 0.202 1.506-0.211 2.165-0.408 0.657-1.032 1.132-1.874 1.424v0c-0.466 0.162-0.965 0.268-1.498 0.318-0.533 0.05-1 0.023-1.401-0.081v0c-0.016-0.045-0.047-0.134-0.093-0.268-0.044-0.128-0.097-0.36-0.157-0.696-0.054-0.339-0.065-0.628-0.034-0.867v0l1.1-0.383c0.206 0.2 0.391 0.497 0.556 0.889v0c0.314 0.019 0.65-0.033 1.007-0.157 0.357-0.124 0.625-0.31 0.803-0.559 0.17-0.252 0.199-0.538 0.088-0.856v0c-0.051-0.147-0.103-0.265-0.155-0.353-0.059-0.087-0.169-0.166-0.33-0.239-0.159-0.066-0.362-0.096-0.61-0.088v0l-1.318 0.062c-1.338 0.08-2.217-0.483-2.636-1.689v0c-0.244-0.701-0.181-1.353 0.188-1.953 0.364-0.598 0.957-1.041 1.78-1.327 0.823-0.286 1.694-0.382 2.613-0.288v0c0.016 0.045 0.047 0.134 0.093 0.268 0.044 0.128 0.097 0.36 0.157 0.696 0.054 0.339 0.065 0.628 0.034 0.868v0l-1.1 0.383c-0.201-0.145-0.384-0.424-0.55-0.838z" fill="#ffffff" data-fill-palette-color="primary"/>
                                <path d="M126.944 163.209v0c-0.266 0.015-0.618 0.135-1.057 0.359-0.439 0.225-0.696 0.596-0.772 1.113-0.07 0.514 0.138 1.246 0.624 2.195 0.487 0.949 0.961 1.556 1.423 1.821 0.462 0.264 0.948 0.265 1.458 0.003v0c0.781-0.4 1.421-0.876 1.92-1.428v0l0.887 0.775c-0.532 0.857-1.321 1.553-2.366 2.089-1.039 0.533-1.943 0.62-2.711 0.263-0.771-0.349-1.499-1.193-2.186-2.533-0.69-1.346-0.911-2.488-0.664-3.427 0.244-0.93 0.883-1.659 1.917-2.189v0c0.835-0.428 1.745-0.606 2.73-0.534v0c0.022 0.042 0.065 0.126 0.129 0.252 0.065 0.126 0.145 0.35 0.243 0.673 0.106 0.325 0.16 0.608 0.162 0.849v0l-1.036 0.532c-0.204-0.146-0.438-0.417-0.701-0.813z" fill="#ffffff" data-fill-palette-color="primary"/>
                                <path d="M136.202 165.95c-0.976 0.63-1.89 0.819-2.744 0.567-0.85-0.246-1.684-1.002-2.501-2.266-0.817-1.265-1.15-2.372-1-3.322 0.145-0.946 0.711-1.737 1.698-2.374 0.987-0.637 1.896-0.847 2.728-0.629 0.83 0.227 1.652 0.971 2.465 2.23 0.813 1.259 1.153 2.382 1.019 3.369-0.134 0.987-0.689 1.795-1.665 2.425zM131.588 161.009c-0.013 0.515 0.268 1.218 0.843 2.108 0.572 0.885 1.12 1.447 1.644 1.687 0.525 0.24 1.017 0.211 1.477-0.085 0.454-0.293 0.684-0.715 0.689-1.265 0.01-0.545-0.273-1.263-0.848-2.153v0c-1.066-1.651-2.095-2.155-3.088-1.515v0c-0.459 0.297-0.699 0.704-0.717 1.223z" fill="#ffffff" data-fill-palette-color="primary"/>
                                <path d="M146.039 156.381l-2.063-2.446c-0.209-0.248-0.515-0.652-0.918-1.214v0l-0.166-0.244-0.106 0.063c0.308 0.659 0.539 1.189 0.692 1.59v0l1.847 4.735-1.247 1.051-4.418-2.568c-0.354-0.179-0.756-0.44-1.205-0.785v0l-0.237-0.171-0.088 0.1c0.527 0.51 0.945 0.948 1.254 1.314v0l2.09 2.478c0.306-0.108 0.577-0.138 0.812-0.089v0l0.514 0.799-1.842 1.553-0.701-0.641c-0.008-0.24 0.067-0.502 0.225-0.786v0l-3.662-4.344c-0.336 0.125-0.615 0.161-0.836 0.109v0l-0.513-0.813 2.137-1.802 4.577 2.632c0.524 0.265 0.952 0.548 1.286 0.85v0l0.169 0.136 0.131-0.111c-0.296-0.404-0.546-0.931-0.749-1.58v0l-1.899-4.891 2.106-1.776 0.707 0.649c0.019 0.222-0.061 0.488-0.241 0.799v0l3.63 4.305c0.326-0.116 0.59-0.153 0.793-0.112v0l0.567 0.861-2.145 1.808-0.746-0.696c-0.006-0.207 0.075-0.461 0.245-0.763z" fill="#ffffff" data-fill-palette-color="primary"/>
                                <path d="M152.627 148.78l1.562 1.458-3.892 4.168-0.83-0.609c-0.025-0.171 0.031-0.429 0.167-0.773v0l-4.109-3.836c-0.319 0.164-0.575 0.235-0.767 0.212v0l-0.664-0.787 3.829-4.101 1.569 1.466-0.54 0.742c-0.252 0.023-0.578-0.073-0.977-0.289v0l-1.314 1.407 1.54 1.437 1.168-1.251c-0.109-0.24-0.163-0.434-0.163-0.582v0l0.592-0.5 1.599 1.493-0.451 0.631c-0.133 0.024-0.33-0.017-0.592-0.123v0l-1.168 1.252 1.717 1.603 1.382-1.48c-0.242-0.364-0.363-0.68-0.362-0.948v0z" fill="#ffffff" data-fill-palette-color="primary"/>
                                <path d="M150.675 141.12l3.937-5.651 1.437 1.002-0.362 0.697c-0.128 0.042-0.327 0.027-0.598-0.046v0l-0.845 1.214 4.679 3.259c0.3-0.194 0.54-0.303 0.72-0.325v0l0.77 0.684-1.644 2.36-0.914-0.476c-0.049-0.166-0.031-0.429 0.055-0.789v0l-4.679-3.259-0.839 1.205c0.158 0.234 0.24 0.418 0.244 0.553v0l-0.523 0.574z" fill="#ffffff" data-fill-palette-color="primary"/>
                                <path d="M160.434 130.14v0c0.484 0.27 0.805 0.65 0.964 1.141 0.159 0.491 0.198 1.011 0.115 1.56v0c0.345-0.272 0.659-0.406 0.943-0.402v0l1.929 0.056c0.303-0.28 0.564-0.436 0.783-0.468v0l0.764 0.565-1.012 1.813-3.317-0.227c-0.328-0.036-0.535 0.023-0.62 0.176v0l-0.39 0.699 1.716 0.957c0.405-0.462 0.726-0.712 0.963-0.75v0l0.835 0.605-1.618 2.901-0.953-0.392c-0.065-0.16-0.073-0.423-0.023-0.79v0l-4.91-2.738c-0.271 0.236-0.502 0.366-0.693 0.391v0l-0.834-0.605 1.529-2.742c0.577-0.993 1.153-1.645 1.73-1.958 0.58-0.318 1.279-0.249 2.099 0.208zM157.737 132.626v0l-0.355 0.637 2.035 1.134 0.345-0.619c0.27-0.484 0.398-0.887 0.385-1.211-0.007-0.321-0.202-0.588-0.585-0.802-0.377-0.21-0.712-0.235-1.003-0.072-0.288 0.156-0.562 0.467-0.822 0.933z" fill="#ffffff" data-fill-palette-color="primary"/>
                                <path d="M166.358 123.927c0.987 0.423 1.624 0.96 1.91 1.611 0.286 0.652 0.216 1.477-0.212 2.476-0.431 1.005-0.968 1.609-1.613 1.811-0.645 0.201-1.466 0.088-2.465-0.34v0l-3.659-1.568c-0.228 0.24-0.444 0.394-0.649 0.461v0l-0.889-0.524 1.133-2.644 0.988 0.291c0.09 0.185 0.128 0.448 0.115 0.787v0l3.696 1.583c0.546 0.234 0.988 0.317 1.326 0.249 0.335-0.062 0.601-0.323 0.797-0.782 0.197-0.459 0.2-0.844 0.009-1.153-0.187-0.301-0.544-0.564-1.072-0.79v0l-3.696-1.583c-0.245 0.262-0.461 0.416-0.649 0.46v0l-0.892-0.515 1.061-2.476 0.988 0.291c0.092 0.179 0.13 0.442 0.114 0.787v0z" fill="#ffffff" data-fill-palette-color="primary"/>
                                <path d="M169.765 116.639l2.036 0.649-1.731 5.433-1.012-0.195c-0.096-0.144-0.156-0.4-0.18-0.769v0l-5.356-1.706c-0.218 0.285-0.419 0.458-0.601 0.52v0l-0.938-0.426 1.703-5.346 2.046 0.651-0.171 0.903c-0.218 0.129-0.554 0.181-1.006 0.157v0l-0.585 1.834 2.008 0.639 0.519-1.631c-0.201-0.17-0.333-0.322-0.397-0.456v0l0.321-0.705 2.084 0.664-0.137 0.764c-0.11 0.078-0.306 0.126-0.587 0.142v0l-0.52 1.631 2.239 0.713 0.615-1.93c-0.375-0.226-0.619-0.459-0.733-0.701v0z" fill="#ffffff" data-fill-palette-color="primary"/>
                                <path d="M5.755 94.148c0-1.166 0.945-2.111 2.111-2.112 1.166 0 2.111 0.945 2.112 2.112 0 1.166-0.945 2.111-2.112 2.111-1.166 0-2.111-0.945-2.111-2.111z" fill="#ffffff" data-fill-palette-color="primary"/>
                                <path d="M169.67 94.148c0-1.166 0.945-2.111 2.111-2.112 1.166 0 2.111 0.945 2.112 2.112 0 1.166-0.945 2.111-2.112 2.111-1.166 0-2.111-0.945-2.111-2.111z" fill="#ffffff" data-fill-palette-color="primary"/>
                              </g>
                            </svg>
                          </g>
                        </svg>
                      </g>
                    </svg>
                  </g>
                  <g/>
                </svg>
              </g>
            </svg>
          </g>
        </svg>
      </g>
    </svg>
  </g>
</svg>